<?xml version="1.0" encoding="UTF-8"?>
<!DOCTYPE svg PUBLIC "-//W3C//DTD SVG 1.1//EN" "http://www.w3.org/Graphics/SVG/1.1/DTD/svg11.dtd">
<!-- Creator: CorelDRAW 2021 (64-Bit) -->
<svg xmlns="http://www.w3.org/2000/svg" xml:space="preserve" width="77.3823mm" height="91.7369mm" version="1.1" style="shape-rendering:geometricPrecision; text-rendering:geometricPrecision; image-rendering:optimizeQuality; fill-rule:evenodd; clip-rule:evenodd"
viewBox="0 0 7738.24 9173.7"
 xmlns:xlink="http://www.w3.org/1999/xlink"
 xmlns:xodm="http://www.corel.com/coreldraw/odm/2003">
 <defs>
  <style type="text/css">
   <![CDATA[
    .fil3 {fill:#FEFEFE}
    .fil0 {fill:#FEFEFE}
    .fil2 {fill:#800020}
    .fil5 {fill:#FEFEFE;fill-rule:nonzero}
    .fil1 {fill:#800020;fill-rule:nonzero}
    .fil4 {fill:#800020;fill-rule:nonzero}
   ]]>
  </style>
 </defs>
 <g id="Layer_x0020_1">
  <metadata id="CorelCorpID_0Corel-Layer"/>
  <g id="_1782272901008">
   <path class="fil0" d="M5936.9 0l502.03 0 235.64 235.63 0 690.75 -235.64 235.64 -140.95 0 -79.95 109.42 -109.42 218.72 0 137.55 8.16 27.27 90.06 0 4 184.01c13.34,612.2 41.37,1225.89 36.46,1838.18 -4.37,544.41 -35.83,1098.77 -156.28,1631.11 -62.44,275.94 -146.39,530.68 -251.49,766.95 79.83,-8.07 169.11,-0.79 269.25,25.01 285.48,73.51 596.41,274.88 898.03,245.22 7.16,-4.57 13.91,-9.71 20.37,-15.3l32.51 -34.28c20.11,-24.98 37.27,-52.98 53.44,-81.44l96.04 -165.69 7.72 -9.96c52.54,-67.8 123.91,-113.24 211.77,-113.13 204.83,0.27 330.01,147.03 306.84,348.1l-2.38 20.55 -6.71 19.39c-20.77,64.45 -24.23,109.59 -56.58,175.56 -108.31,236.9 -502.51,808.18 -785.33,809.72 -195.88,4.62 -365.45,-30.59 -533.46,-84.69 -3.82,63.24 -17.09,127.25 -38.94,191.21l0 446.14 -19.95 39.81c-158.8,316.75 -575.71,498.72 -1036.7,602.42l0 414.04c0,356.02 -2791.09,352.72 -2791.09,0l0 -418.25c-453.62,-104.38 -861.55,-285.71 -1018.24,-598.21l-19.95 -39.81 0 -446.14c-21.85,-63.96 -35.12,-127.97 -38.94,-191.21 -168.01,54.1 -337.58,89.31 -533.46,84.69 -282.82,-1.54 -677.02,-572.82 -785.33,-809.72 -32.35,-65.97 -35.76,-110.95 -56.58,-175.56l-6.71 -19.39 -2.38 -20.55c-23.17,-201.07 102.01,-347.83 306.84,-348.1 87.86,-0.11 159.24,45.33 211.77,113.13l7.73 9.96 96.03 165.69c16.17,28.46 33.33,56.46 53.45,81.44l32.5 34.28c6.46,5.59 13.21,10.73 20.37,15.3 301.62,29.66 612.56,-171.71 898.04,-245.22 82.46,-21.26 157.59,-29.94 226.13,-27.83 -72.79,-167.14 -136.07,-343.08 -190.04,-528.47 -335.1,-1151.36 -271.79,-2532.82 -172.5,-3716.43l14.45 -172.37 14.92 0c-21.37,-47.39 -31.85,-98.33 -31.85,-150.68l0 -301.55 -11.71 -40.89 -415.2 0 0 -553.55 107.88 0 77.97 -195.15 0 -413.32 1188.97 0 75.49 125.98 75.51 -125.98 3347.39 0zm-1270.42 7537.87c315.89,-34.64 652.38,-96.44 886.26,-206.73 -5.87,-0.87 -11.91,-1.73 -18.16,-2.6 -186.6,-26.34 -289.51,-111.7 -331.33,-281.79 -160.53,175.75 -339.54,338.71 -536.77,491.12zm-2148.57 -435.23c-49.78,133.23 -149.32,202.63 -314.24,225.9 -6.16,0.87 -12.11,1.71 -17.89,2.55 209.81,98.79 501.16,158.34 780.57,194.33 -162.82,-131.87 -312.24,-272.46 -448.44,-422.78z"/>
   <path class="fil1" d="M1855.53 200.06l-417.91 0 0 176.41 33.97 0 -172.63 432.05 -47.18 0 0 177.35 300.94 0 0 -177.35 -25.48 0 12.26 -35.84 208.49 0 11.32 35.84 -25.47 0 0 177.35 301.87 0 0 -177.35 -47.16 0 -172.63 -432.05 39.61 0 0 -176.41zm-262.25 422.62l50 -124.53 49.99 124.53 -99.99 0zm920.71 266.97l171.69 -284.89 0 203.76 -47.15 0 0 177.35 310.35 0 0 -177.35 -47.16 0 0 -432.05 47.16 0 0 -176.41 -252.82 0 -182.07 303.75 -182.06 -303.75 -252.82 0 0 176.41 47.18 0 0 432.05 -47.18 0 0 177.35 310.37 0 0 -177.35 -47.18 0 0 -203.76 171.69 284.89zm1095.24 -689.59l-417.91 0 0 176.41 33.97 0 -172.63 432.05 -47.18 0 0 177.35 300.94 0 0 -177.35 -25.48 0 12.26 -35.84 208.49 0 11.32 35.84 -25.46 0 0 177.35 301.86 0 0 -177.35 -47.16 0 -172.63 -432.05 39.61 0 0 -176.41zm-262.25 422.62l50 -124.53 49.99 124.53 -99.99 0zm485.83 -422.62l0 176.41 47.18 0 0 432.05 -47.18 0 0 177.35 486.78 0 125.45 -125.46 0 -534.89 -125.45 -125.46 -486.78 0zm263.2 608.46l0 -432.05 107.53 0 25.49 25.46 0 382.07 -25.49 24.52 -107.53 0zm673.55 0l0 -127.36 32.07 0 0 31.14 176.42 0 0 -238.67 -176.42 0 0 31.12 -32.07 0 0 -128.28 137.74 0 0 31.12 177.35 0 0 -207.53 -578.28 0 0 176.41 47.17 0 0 432.05 -47.17 0 0 177.35 578.28 0 0 -208.47 -177.35 0 0 31.12 -137.74 0zm1015.99 51.89l0 -483.94 47.16 0 0 -176.41 -310.37 0 0 176.41 47.18 0 0 407.53 -24.52 24.52 -115.11 0 -25.46 -24.52 0 -407.53 47.18 0 0 -176.41 -310.37 0 0 176.41 47.17 0 0 483.94 125.46 125.46 346.21 0 125.47 -125.46zm460.35 -177.37l24.52 25.49 0 75.47 -24.52 24.52 -115.08 0 -25.46 -24.52 0 -74.53 -216.04 0 0 150.94 125.46 125.46 346.22 0 125.46 -125.46 0 -228.3 -125.46 -125.47 -230.18 0 -25.46 -25.47 0 -79.24 25.46 -25.46 115.08 0 24.52 25.46 0 78.3 216.04 0 0 -154.71 -125.46 -125.46 -346.22 0 -125.46 125.46 0 232.07 125.46 125.45 231.12 0z"/>
   <path class="fil1" d="M2077.76 1177.21c-2.13,6.88 -3.26,15.13 -3.26,24.52l0 310.68c0,40.07 -9.51,73.98 -28.67,101.65 -19.28,27.92 -44.57,46.94 -75.59,56.96 -29.67,9.76 -62.23,14.64 -97.65,14.64 -51.19,0 -91.25,-9.26 -120.04,-27.9 -23.28,-14.66 -41.44,-34.43 -54.44,-59.34 -12.89,-24.8 -19.42,-52.07 -19.42,-82l0 -314.69c0,-8.88 -1.12,-17.15 -3.24,-24.52l89.87 0c-2.14,7.62 -3.26,15.76 -3.26,24.15l0 316.58c0,29.9 7.02,55.07 20.91,75.72 23.03,34.29 60.71,51.44 112.9,51.44 45.07,0 79.87,-12 104.27,-36.05 24.55,-24.03 36.81,-58.2 36.81,-102.51l0 -304.81c-0.26,-9.88 -1.38,-18.02 -3.26,-24.52l44.07 0zm229.12 92.74l0 384.03c0,9.02 1.12,17.04 3.24,24.17l-44.82 0c2.15,-7.39 3.27,-15.4 3.27,-24.17l0 -452.25c0,-9.39 -1.12,-17.64 -3.27,-24.52l79.76 0c1.24,4.87 4.12,10.63 8.76,17.27l273.75 382.78 0 -375.53c0,-8.63 -1.12,-16.9 -3.25,-24.52l44.8 0c-1.86,5.76 -3,13.75 -3.24,24.15l0 454.39c0.24,9.77 1.49,17.27 3.62,22.4l-73.1 0c-1.51,-4.13 -5.13,-10.39 -11.02,-18.65l-278.5 -389.55zm560.07 -92.74l89.87 0c-1.89,5.99 -3.01,14.01 -3.26,24.15l0 452.62c0.25,10.28 1.37,18.3 3.26,24.17l-89.87 0c2.12,-7.39 3.24,-15.4 3.24,-24.17l0 -452.62c0,-8.63 -1.12,-16.78 -3.24,-24.15zm220.83 0l94.27 0c0,1.75 0,3.12 0,4.38 0,4.13 1.24,9.75 3.62,16.9l133.19 395.29 136.44 -397.18c2.13,-6.5 3.25,-13.03 3.25,-19.39l45.82 0c-4.64,7.88 -8.02,14.89 -10.26,21.28l-155.85 459.13c-1.5,4.38 -2.75,11.28 -4.01,20.53l-77.36 0c-1,-6.38 -2.75,-13.26 -5.13,-20.53l-152.96 -455.52c-1.75,-4.38 -5.38,-12.63 -11.02,-24.89zm543.05 0l259.36 0 0 40.42c-7.63,-2.38 -15.39,-3.62 -23.4,-3.62l-149.33 0 0 191.52 145.2 0c10.51,0 19.77,-1.14 27.53,-3.27l0 40.81c-6.62,-1.51 -15.52,-2.26 -26.78,-2.26l-145.95 0 0 196.79 144.83 0c8.13,0 17.39,-1.26 27.9,-3.64l0 44.19 -258.99 0c1.89,-7.39 2.89,-15.4 2.89,-23.91l0 -452.88c0,-10.02 -1.14,-18.02 -3.26,-24.15zm524.91 268.87l0 207.9c0,8.53 1.12,16.53 3.26,24.17l-90.64 0c2.12,-6.38 3.26,-14.4 3.26,-24.17l0 -453c0,-8.25 -1.14,-16.27 -3.26,-23.77l152.34 0c34.68,0 65.09,7.25 91.25,21.65 20.41,11.26 36.43,26.66 48.08,46.31 12,19.77 18.01,42.44 18.01,67.59 0,56.08 -26.4,94.26 -79.22,114.67 -14.4,5.37 -33.05,10.26 -55.84,14.64l164.36 216.29c6.76,8.77 13.52,15.41 20.16,19.79l-109.29 0c-2.49,-7.64 -6.01,-14.77 -10.63,-21.65l-151.84 -210.42zm-0.75 -28.55l39.3 0c22.79,0 42.44,-5.76 58.83,-17.27 26.66,-19.16 40.06,-47.2 40.06,-84 0,-34.03 -11.26,-61.2 -33.79,-81.23 -16.41,-14.52 -39.56,-21.79 -69.23,-21.79l-35.17 0 0 204.29zm374.82 229.46l16.9 -59.46c13.38,11.52 24.52,20.28 33.28,26.41 26.29,18.27 54.71,27.41 85.12,27.41 30.67,0 54.84,-9.02 72.37,-27.16 15.64,-16.28 23.4,-36.19 23.4,-59.33 0,-27.41 -11.14,-49.46 -33.31,-66.36 -10.25,-7.76 -35.54,-21.28 -75.72,-40.3 -41.68,-19.76 -71.09,-39.43 -88.13,-58.94 -20.27,-23.05 -30.41,-49.83 -30.41,-80.62 0,-27.41 7.64,-52.21 22.79,-74.49 29.53,-42.42 77.36,-63.7 143.44,-63.7 37.68,0 76.61,8.88 116.67,26.52l-15.78 53.21c-38.43,-26.66 -73.6,-39.94 -105.65,-39.94 -25.78,0 -46.57,8.01 -62.46,24.17 -13.38,14.02 -20.14,30.78 -20.14,50.32 0,20.27 6.76,36.92 20.28,49.82 13.63,13.01 41.42,29.05 83.48,48.07 46.06,21.27 77.36,41.93 93.77,62.09 20.51,25.4 30.79,54.82 30.79,88.36 0,28.54 -7.39,54.95 -22.29,79.24 -30.04,48.94 -80.1,73.35 -149.95,73.35 -25.17,0 -48.08,-2.87 -68.6,-8.63 -20.67,-5.76 -43.93,-15.78 -69.85,-30.04zm477.97 -469.78l89.88 0c-1.89,5.99 -3.01,14.01 -3.26,24.15l0 452.62c0.25,10.28 1.37,18.3 3.26,24.17l-89.88 0c2.13,-7.39 3.25,-15.4 3.25,-24.17l0 -452.62c0,-8.63 -1.12,-16.78 -3.25,-24.15zm221.98 0l363.5 0 0 45.31c-12.01,-2.14 -22.54,-3.26 -31.3,-3.26l-108.41 0 0 434.61c0,8.88 1.14,16.89 3.4,24.28l-90.01 0c2.12,-7.13 3.26,-15.15 3.26,-24.28l0 -434.61 -108.54 0c-10.25,0 -20.9,1.12 -31.9,3.26l0 -45.31zm607.37 281.64l-129.05 -261.5c-4.12,-8.51 -8.13,-15.27 -11.77,-20.14l97.15 0c0.51,4.87 3,12.14 7.38,21.65l101.76 207.9 105.91 -209.04c3.01,-5.87 5.25,-12.63 7.01,-20.51l47.32 0c-3.75,5.13 -7.53,11.37 -11.4,18.76l-130.94 261.74 0 196.27c0,9.02 1.14,17.04 3.27,24.17l-89.88 0c2.12,-7.39 3.24,-15.4 3.24,-24.17l0 -195.13z"/>
   <path class="fil2" d="M1680.51 1855.21l4342.26 -0.16c56.82,2609.22 314.88,4545.49 -2036.93,5925.36l-337.31 0.04c-1930.76,-1141.77 -2217.69,-2949.02 -1968.01,-5925.24z"/>
   <g>
    <path class="fil3" d="M4773.47 3735.14c-24.32,-339.45 -387.8,-272.61 -226.7,-793.5 12.46,355.23 506.13,544.75 226.7,793.5z"/>
    <path class="fil3" d="M4943.09 3735.14c184.75,-323.65 -683.62,-718.32 -41.32,-1140.61 -78.27,481.45 675.77,655.23 41.32,1140.61z"/>
   </g>
   <g>
    <path class="fil3" d="M2881.98 2870.12l18.01 700.86c0,0 -130.59,-196.98 -315.62,-193.31l-52.94 -721.17c0,0 224.57,32.86 350.55,213.62z"/>
    <path class="fil3" d="M2490.73 2694.15l-77.98 -25.43c0,0 39.2,547.77 62.51,822.09 141.46,-53.12 240.45,-24.46 307.48,14.29 -54.68,-47.76 -122.98,-85.58 -197.5,-84.1l-41.07 0.82 -3.01 -40.98c-16.75,-228.9 -33.66,-457.79 -50.43,-686.69z"/>
    <path class="fil3" d="M2380.14 2818.51l-85.82 -19.37 74.32 884.35c94.81,-142.07 288.19,-176.31 288.39,-176.38 -82.21,-10.28 -146.03,16.49 -220.04,44.29l-4.84 -56.93c-19.12,-225.04 -35.77,-450.57 -52.01,-675.96z"/>
    <path class="fil3" d="M2983.73 2870.12l-18.02 700.86c0,0 130.59,-196.98 315.62,-193.31l52.95 -721.17c0,0 -224.57,32.86 -350.55,213.62z"/>
    <path class="fil3" d="M3374.97 2694.15l77.98 -25.43c0,0 -39.2,547.77 -62.51,822.09 -141.45,-53.12 -240.45,-24.46 -307.47,14.29 54.67,-47.76 122.97,-85.58 197.5,-84.1l41.07 0.82 3 -40.98c16.76,-228.9 33.66,-457.79 50.43,-686.69z"/>
    <path class="fil3" d="M3485.57 2818.51l85.81 -19.37 -74.32 884.35c-94.82,-142.07 -288.18,-176.31 -288.39,-176.38 82.21,-10.28 146.03,16.49 220.04,44.29l4.84 -56.93c19.13,-225.04 35.78,-450.57 52.02,-675.96z"/>
   </g>
   <path class="fil3" d="M2151.11 5295.01c-59.18,-234.84 -111.27,-672.26 -136.66,-999.88l1868.68 -607.35 1870.89 634.62c-31.63,335.3 -69.13,661.1 -160.88,1007.29l-1694.54 -686.62 -1747.49 651.94z"/>
   <path class="fil0" d="M1979.87 2232.19l3798.52 -0.14c50.87,2335.85 286.52,4055.24 -1929.52,5267.33 -1877.62,-944.03 -1955.11,-2589.63 -1869,-5267.19zm1867 5146.34c878.08,-491.16 1472.09,-1122.31 1713.14,-2116.54 109.73,-452.68 138.35,-928.63 143.26,-1393.06 5.4,-509.46 -16.6,-1020.51 -29.15,-1530.14l-3590.86 0.14c-17.76,568.02 -30.58,1141.04 -5.11,1708.32 21.59,480.53 71.85,975.46 202.56,1439.68 250.14,888.35 751.82,1469.38 1566.16,1891.6z"/>
   <path class="fil0" d="M2239.28 5327.88l1666.45 -603.42 1630.46 630.35c-10.22,37.69 -21.02,74.79 -32.27,111.42l-1598.19 -634.35 -1641.52 594.68c-8.68,-32.76 -16.99,-65.66 -24.93,-98.68z"/>
   <path class="fil4" d="M3019.81 8850.12l-43.24 93.81c-2.45,5.33 -3.91,9.93 -4.27,13.71 -0.09,1.02 -0.14,2.66 -0.14,4.82l-55.64 -5.18c4.59,-5.03 8.44,-10.95 11.66,-17.96l165.96 -359.81c2.48,-5.64 3.94,-10.24 4.27,-13.82 0.09,-1.02 0.3,-2.13 0.44,-3.56l86.67 8.07c-0.59,4.17 0.01,9.89 1.71,17.05l99.93 385.5c1.91,7.08 5.01,13.65 9.26,19.92l-117.2 -10.92c0.37,-1.82 0.6,-3.13 0.69,-4.16 0.37,-3.98 -0.19,-8.97 -1.6,-14.87l-24.25 -100.09 -134.25 -12.51zm20.04 -43.86l102.92 9.59 -37.25 -157.33 -65.67 147.74zm443.95 -73.45l-45.45 251.3c-0.28,2.05 -0.44,3.37 -0.46,3.99 -0.12,3.18 0.4,8.33 1.56,15.35l-55.84 -2.14c3.44,-6.64 5.85,-13.22 7.01,-19.64l69.67 -368.79c0.54,-3.47 0.86,-6.54 0.97,-9.3 0.1,-2.67 -0.18,-5.96 -0.75,-9.98l91.3 3.5c-0.39,2.04 -0.54,3.36 -0.57,4.18 -0.15,3.79 0.6,8.44 2.13,13.94l82.9 281.26 105.15 -274.97c2.18,-5.77 3.37,-10.13 3.48,-13.11 0.03,-0.82 -0.02,-2.05 -0.05,-3.9l89.75 3.45c-0.46,3.98 -0.66,6.74 -0.73,8.38 -0.13,3.38 -0.04,6.47 0.27,9.04l36.81 375.34c0.78,6.29 2.59,12.72 5.51,19.5l-109.53 -4.2c0.84,-3.35 1.37,-6.41 1.48,-9.28 0.08,-1.95 -0.11,-5.14 -0.56,-9.36l-21.91 -258.2 -96.82 253.03c-2.4,6.37 -3.72,11.25 -3.85,14.63 -0.04,1.02 0.01,2.46 0.03,4.51l-83.09 -3.18c0.37,-1.63 0.62,-2.95 0.67,-4.18 0.12,-3.18 -0.73,-7.83 -2.44,-13.95l-76.64 -257.22zm518.82 -124.4l109.29 -1.88c-1.86,4.96 -2.88,11.74 -2.93,20.46l6.36 369.8c0.35,8.61 1.59,15.26 3.62,20.04l-109.29 1.88c2.06,-5.47 3.08,-12.15 2.94,-20.15l-6.36 -369.8c-0.14,-8.31 -1.39,-15.06 -3.63,-20.35zm250.43 404.12l-2.9 -50.26 170.52 -324.21 -158.88 9.15c-11.16,0.64 -21.02,2.34 -29.5,4.99l-2.84 -49.35 305.26 -17.58 2.86 49.65 -170 324.18 161.95 -9.33c11.25,-0.85 19.89,-2.37 25.93,-4.47l2.86 49.65 -305.26 17.58zm396.85 -436.17l108.73 -11.24c-1.43,5.1 -1.86,11.94 -1.16,20.64l38.02 367.89c1.09,8.55 2.89,15.06 5.33,19.66l-108.73 11.23c1.58,-5.62 2.02,-12.37 1.2,-20.33l-38.02 -367.89c-0.86,-8.26 -2.67,-14.88 -5.37,-19.96z"/>
   <path class="fil2" d="M3985.82 7780.42c827.79,-16.71 1620.52,-135.07 1918.41,-455.35 -256.18,-295.19 -483.54,-39.65 -527.82,-362.13 322.94,-1329.48 942.62,-312.42 1686.77,-423.01 36.37,-15.93 67.73,-37.64 95.22,-62.83l42.46 -44.78c29.5,-35.5 53.92,-74.44 75.42,-112.31l89.29 -154.05c19.32,-24.93 39.32,-40.28 62.83,-40.23 97.29,0.11 129.86,54.8 120.22,138.47 -12.64,36.44 -17.68,94.27 -48.76,156.35 -133.7,295.84 -495.56,707.3 -617.24,702.3 -316.76,8.09 -581,-110.66 -809.84,-201.17l7.73 21.55c96.29,129.07 107.61,276.77 43.48,441.03l0 434.84c-225.65,450.08 -1241.89,637.07 -2252.26,631.45l-5.21 0c-1010.37,5.62 -2026.61,-181.37 -2252.26,-631.45l0 -434.84c-64.13,-164.26 -52.81,-311.96 43.48,-441.03l7.73 -21.55c-228.83,90.51 -493.08,209.26 -809.84,201.17 -121.68,5 -483.54,-406.46 -617.24,-702.3 -31.08,-62.08 -36.12,-119.91 -48.76,-156.35 -9.64,-83.67 22.93,-138.36 120.22,-138.47 23.51,-0.05 43.51,15.3 62.83,40.23l89.29 154.05c21.5,37.87 45.92,76.81 75.42,112.31l42.46 44.78c27.49,25.19 58.85,46.9 95.22,62.83 744.15,110.59 1363.83,-906.47 1686.77,423.01 -44.28,322.48 -271.64,66.94 -527.82,362.13 297.89,320.28 1090.62,438.64 1918.42,455.35l114.08 0.02 5.21 0 114.09 -0.02zm-3459.09 -1261.13c-305.8,-44.37 -336.92,-469.21 -195.28,-271.97l195.28 271.97zm1754.48 468.67c-190.6,-216.51 -379.11,-172.5 -603.15,-57.78l0.87 4.5 0.95 4.71 1.02 4.88 1.07 5.05 1.18 5.23 1.21 5.36 1.29 5.53c16.89,70.58 63.9,232.06 120.23,312.53l3.05 4.27 3.09 4.09c4.07,5.32 8.18,10.07 12.27,14.19 2.05,2.04 4.05,3.97 6.12,5.72l0 -0.02c67.05,-79.83 93.78,-115.72 198.37,-148.23 81.17,-24.98 280.48,-15.43 291.39,-125.41l-38.96 -44.62zm4930.32 -468.67c305.8,-44.37 336.92,-469.21 195.28,-271.97l-195.28 271.97zm-1754.48 468.67c190.6,-216.51 379.11,-172.5 603.15,-57.78l-0.87 4.5 -0.95 4.71 -1.02 4.88 -1.07 5.05 -1.18 5.23 -1.21 5.36 -1.29 5.53c-16.89,70.58 -63.9,232.06 -120.23,312.53l-3.04 4.27 -3.1 4.09c-4.06,5.32 -8.18,10.07 -12.27,14.19 -2.05,2.04 -4.05,3.97 -6.12,5.72l0 -0.02c-67.05,-79.83 -93.78,-115.72 -198.37,-148.23 -81.17,-24.98 -280.48,-15.43 -291.39,-125.41l38.96 -44.62z"/>
   <g>
    <path class="fil5" d="M2216.13 7867.46l72.43 126.39c12.27,20.91 23.02,36.12 32.88,44.97 9.76,9.24 20.69,15.75 31.9,19.68l-2.01 7.35 -128.95 -35.29 2.02 -7.34c7.74,2.13 13.79,2.46 17.84,0.5 4.34,-1.44 6.76,-3.85 7.65,-7.11 0.9,-3.27 0.86,-6.35 0.31,-9.13 -0.56,-2.79 -3.3,-8.8 -8.35,-17.63l-68.19 -117.77 -23.89 87.3c-3.68,13.46 -5.44,23.08 -4.52,27.71 0.33,3.61 2.4,7.24 5.82,10.81 4.82,4.82 10.48,8.13 17.02,9.91l9.38 2.57 -2.01 7.34 -115.87 -31.69 2.01 -7.35 9.79 2.68c11.01,3.01 20.07,1.98 26.76,-3.21 4.38,-3.18 8.79,-12.93 13.26,-29.26l47.89 -175.05c3.8,-13.87 5.44,-23.07 5.03,-28.01 -0.74,-3.71 -2.4,-7.22 -5.92,-10.39 -5.23,-4.94 -10.9,-8.24 -17.02,-9.92l-9.8 -2.68 2.01 -7.34 115.88 31.71 -2.02 7.34 -9.38 -2.58c-6.12,-1.66 -12.68,-1.7 -19.58,-0.52 -4.64,0.92 -8.39,3.4 -11.25,7.45 -2.75,3.63 -5.91,11.98 -9.59,25.44l-22.66 82.84c3.52,-1.67 14.84,-7.78 34.25,-17.84 49.51,-25.47 79.76,-43.07 91.16,-52.68 5.24,-4.7 8.1,-8.74 9.22,-12.83 0.78,-2.85 0.33,-6.04 -1.85,-9.27 -2.3,-2.82 -6.45,-5.27 -13.38,-7.17l-6.13 -1.68 2 -7.34 99.57 27.23 -2 7.35c-5.72,-1.56 -11.24,-2.19 -16.59,-1.9 -5.23,-0.11 -11.73,1.17 -19.89,3.77 -8.06,2.18 -18.51,6.77 -30.87,13.47 -3.53,1.67 -21.2,11.76 -51.98,29.65l-52.38 29.52z"/>
    <path class="fil5" d="M5564.6 7744.84l19.4 59.09 42.22 -13.85 4.35 13.25 -42.09 14.27 38.26 116.57c3.82,11.66 8.07,19.17 13,22 4.54,2.97 9.21,3.66 14.44,1.94 4.43,-1.45 8.46,-4.11 11.55,-8.23 3.11,-4.14 5.01,-9.21 5.29,-15.1l7.65 -2.51c-0.21,14.31 -3.47,26.07 -9.68,35.68 -6.33,9.2 -14.12,15.31 -22.97,18.22 -6.02,1.97 -12.58,2.35 -19.4,0.58 -6.67,-1.37 -12.68,-4.75 -17.47,-9.85 -4.52,-5.64 -9.3,-14.76 -13.52,-27.62l-39.83 -121.41 -28.55 9.37 -2.1 -6.43c6.3,-5.19 11.96,-12.38 17.35,-21.73 5.4,-9.34 9.6,-19.61 12.59,-30.84 1.1,-6.15 2.62,-16.45 3.5,-31.42l6.01 -1.98z"/>
    <path class="fil5" d="M5367.1 7749.95l33.18 134.29c10.73,-20.07 20.11,-33.29 27.61,-39.93 7.51,-6.66 15.93,-11.35 24.56,-13.49 10.26,-2.53 20.01,-1.89 28.82,2.03 8.82,3.93 16.81,11.54 23.54,22.95 4.6,8.01 9.7,23.32 15.28,45.9l16.13 65.31c2.84,11.49 5.59,19.1 8.76,23.11 1.95,2.57 5.11,4.83 8.4,5.77 3.79,1.24 9.74,0.64 18.36,-1.5l1.83 7.39 -89.94 22.24 -1.83 -7.4 4.11 -1.01c8.63,-2.14 14.07,-4.79 17.06,-8.57 2.67,-3.28 3.82,-7.48 4.24,-12.82 -0.2,-2.56 -1.72,-8.73 -4.26,-18.99l-16.14 -65.31c-4.97,-20.13 -9.03,-33.06 -13.02,-38.61 -3.58,-5.66 -8.08,-9.77 -13.42,-11.93 -5.21,-1.76 -10.97,-2.1 -17.53,-0.47 -6.58,1.63 -12.74,4.9 -19.23,10.42 -6.16,5 -13.06,14.12 -20.28,27.24l24.05 97.32c3.04,12.33 5.8,19.93 7.84,22.91 2.36,2.47 5.43,4.33 9.64,5.47 4.19,1.14 11.07,0.74 20.51,-1.59l1.83 7.39 -90.76 22.43 -1.82 -7.39c8.21,-2.03 14.06,-4.79 18.38,-8.47 2.06,-2.25 3.5,-5.23 4.24,-9.32 0.72,-4.11 -0.28,-11.7 -3.13,-23.2l-41.1 -166.34c-5.18,-20.94 -8.72,-33.57 -11.17,-38.19 -1.94,-4.31 -4.41,-7.2 -6.97,-8.74 -2.45,-1.13 -5.53,-1.25 -8.81,-0.44 -2.88,0.71 -7.09,3.06 -12.74,6.64l-4.71 -6.68 49.46 -36.18 9.03 -2.24z"/>
    <path class="fil5" d="M2447.82 7928.95c27.47,-20.97 51.05,-28.94 70.81,-24.34 9.89,2.3 17.97,6.8 23.83,13.36 6.26,6.68 10.01,16.67 11.44,29.17 1.48,8.59 -0.16,21.25 -4.1,38.13l-18.32 78.7c-2.69,11.53 -3.69,19.55 -2.59,24.15 0.47,3.58 2.28,7.05 5.18,9.47 2.82,2.82 8.81,5.08 17.46,7.09l-1.72 7.43 -91.06 -21.21 1.73 -7.41 3.71 0.86c8.65,2.01 15.12,2.22 19.08,0.1 3.88,-1.7 7.2,-4.84 9.6,-9.5 0.9,-1.96 2.84,-8.46 5.23,-18.76l17.65 -75.81c3.94,-16.88 4.75,-29.72 1.96,-38.2 -2.31,-8.78 -8.86,-14.22 -19.15,-16.62 -15.65,-3.64 -33.74,1.27 -53.52,15.35l-22.74 97.63c-2.88,12.36 -3.87,20.38 -3.32,23.55 1.21,4.2 3,7.65 5.92,10.07 2.82,2.83 9.62,5.28 19.51,7.59l-1.72 7.41 -91.47 -21.3 1.73 -7.42 4.11 0.96c9.48,2.21 16.24,1.17 20.59,-2.59 4.45,-4.18 8.21,-12.86 11.28,-26.04l15.93 -68.4c5.18,-22.23 7.83,-35.52 7.75,-40.75 0.33,-5.13 -0.55,-8.81 -2.23,-10.94 -1.68,-2.13 -4.37,-3.62 -7.67,-4.39 -3.7,-0.86 -8.43,-1.09 -14.26,-0.28l-1.15 -8.09 60.89 -9.71 8.65 2.01 -9.02 38.73z"/>
    <path class="fil5" d="M5211.21 8017.16c-12.41,-3.37 -22.7,-8.94 -31.04,-17.53 -8.34,-8.59 -13.55,-18.73 -16.14,-30.71 -3.92,-18.19 -0.29,-35.43 10.5,-51.6 10.8,-16.17 27.16,-26.62 48.66,-31.27 17.37,-3.74 33.56,-2.9 48.25,3.02l39.29 -8.48c5.78,-1.24 9.09,-1.96 10,-1.71 1.33,0.14 1.84,0.46 2.42,1.2 1.11,1.06 1.96,3.04 2.68,6.34 0.71,3.31 0.84,5.89 0.77,7.62 -0.33,0.51 -1.06,1.09 -1.79,1.69 -1.16,0.68 -4.38,1.8 -10.17,3.05l-23.97 5.18c9.5,7.89 15.89,19.5 19.19,34.8 3.66,16.96 0.25,33.28 -10.31,48.54 -10.23,14.76 -26.67,24.79 -49,29.6 -9.1,1.97 -18.47,2.68 -28.61,1.85 -5.04,6.71 -7.87,11.65 -9.04,16.23 -1.27,4.17 -1.8,7.74 -1.26,10.22 0.54,2.48 2.23,4.28 4.83,6.33 2.92,1.53 7.41,2.28 14.2,1.68 3.81,-0.38 13.5,-1.61 28.49,-4.4 27.79,-5.57 46.25,-8.25 54.37,-8.7 13.19,-1.11 24.08,1.29 33.22,7.55 9.05,5.84 14.73,14.13 17.14,25.3 3.3,15.31 -0.61,31.29 -12.23,47.64 -16.47,23.89 -42.05,39.8 -75.54,47.02 -26.05,5.62 -49.21,4.56 -69.5,-3.19 -11.85,-4.8 -18.33,-10.76 -19.86,-17.79 -0.71,-3.3 -0.59,-6.79 -0.07,-10.37 1.42,-5.5 4.46,-13.51 10.03,-23.8 0.56,-1.42 5.57,-10.29 15.53,-26.28 -7.92,-2.63 -13.27,-5.37 -16.87,-8.05 -3.62,-2.68 -6.07,-6.05 -7.05,-10.59 -0.99,-4.56 -0.08,-10.38 2.22,-17.8 2.39,-7.01 9.1,-17.97 20.66,-32.59zm10.81 -120.46c-9.92,2.14 -17.39,7.64 -22.64,17.42 -4.92,9.28 -5.64,21.99 -2.07,38.53 4.54,21.1 12.65,36.65 24.25,46.28 8.91,7.16 18.57,9.84 29.32,7.51 10.35,-2.23 17.81,-7.73 22.73,-17.02 5,-8.86 5.74,-21.57 2.17,-38.11 -4.56,-21.1 -12.75,-37.07 -24.44,-47.1 -8.9,-7.15 -18.56,-9.83 -29.32,-7.51zm1.76 188.73c-4.7,8.37 -8.32,15.65 -9.96,22.05 -1.98,6.91 -2.47,12.66 -1.41,17.62 1.35,6.2 6.73,11.1 15.25,14.45 15.42,5.33 35.76,5.27 60.98,-0.17 24.4,-5.26 41.29,-13.23 50.58,-24.32 9.69,-11.18 13.52,-21.52 11.47,-31.03 -1.51,-7.04 -5.89,-11.29 -13.53,-12.66 -7.66,-1.38 -21.75,-0.51 -42.52,3.54 -30.36,5.68 -53.88,9.03 -70.86,10.52z"/>
    <path class="fil5" d="M2694.8 7944.09c27.82,5.37 48.59,20.58 61.53,45.05 11.01,21.08 14.06,43.21 9.5,66.89 -3.21,16.62 -10.66,32.85 -21.83,48.36 -11.18,15.5 -24.47,26.29 -40.28,32.29 -15.8,5.99 -31.97,7.18 -49.41,3.82 -27.84,-5.37 -48.1,-20.92 -60.39,-46.55 -10.1,-21.34 -13.07,-43.89 -8.59,-67.15 3.28,-17.03 10.74,-33.25 22.67,-48.19 11.59,-15.43 25.2,-25.72 40.44,-30.97 15.23,-5.25 30.57,-6.6 46.36,-3.55zm-9.21 12.02c-7.08,-1.37 -14.53,-0.65 -22.8,2.05 -7.95,3.21 -15.13,9.15 -21.79,19.06 -6.65,9.92 -11.38,23.22 -14.58,39.84 -5.21,27 -4.3,51.31 2.74,72.91 7.02,21.62 19.23,34.3 36.68,37.67 13.28,2.56 25.13,-0.74 35.52,-9.93 10.81,-9.12 18.57,-27.01 23.62,-53.19 6.34,-32.81 4.31,-60.35 -6.2,-81.76 -7.06,-14.72 -18.25,-23.78 -33.19,-26.65z"/>
    <path class="fil5" d="M5053.1 7819.2c5.4,-1.08 10.79,0 15.68,2.91 4.56,3.39 7.63,7.97 8.71,13.36 1.16,5.8 0.08,11.2 -2.92,15.67 -3.31,4.98 -7.88,8.04 -13.26,9.12 -5.82,1.16 -11.21,0.08 -15.77,-3.31 -4.9,-2.91 -7.96,-7.47 -9.12,-13.28 -1.08,-5.39 0,-10.79 2.91,-15.68 3.4,-4.56 7.96,-7.63 13.77,-8.79zm35.97 93.76l29.83 149.34c2.31,11.61 4.63,18.91 7.04,22.32 2.48,3.82 5.55,6.22 9.21,7.22 3.73,1.42 10.12,1 18.83,-0.74l1.49 7.46 -90.02 17.98 -1.49 -7.46c9.12,-1.82 14.77,-3.82 17.76,-6.14 2.48,-2.66 4.39,-6.05 5.72,-10.21 0.83,-4.47 0.08,-12.52 -2.15,-23.72l-14.34 -71.77c-3.97,-19.91 -6.95,-32.68 -9.43,-38.66 -2.07,-3.9 -3.9,-6.55 -6.31,-7.8 -2.4,-1.24 -5.47,-1.48 -8.79,-0.82 -3.74,0.74 -8.13,2.48 -13.11,5.63l-4.4 -6.88 51.45 -34.01 8.71 -1.74z"/>
    <path class="fil5" d="M2791.79 7966.51l78.61 12.1 -1.16 7.52c-7.17,-0.67 -12.38,-0.19 -14.79,1.58 -2.83,1.7 -4.12,4.5 -4.7,8.27 -0.65,4.18 -0.22,9.81 0.97,15.98l24.02 113.71 54.07 -81.57 -6.7 -28.86c-2.05,-8.87 -5.4,-14.95 -10.32,-19.14 -2.67,-2.11 -7.91,-4.21 -16.2,-5.92l1.16 -7.52 88.64 13.64 -1.15 7.53c-9.68,-1.06 -16.64,-0.42 -21.32,2.27 -2.84,1.71 -4.68,5.29 -5.38,9.88 -0.46,2.93 -0.42,5.5 0.39,8.63l25.82 113.12 55.13 -96.82c4.08,-7.07 6.24,-12.73 6.88,-16.92 0.39,-2.5 -0.48,-5.21 -2.66,-7.68 -2.61,-2.54 -7.51,-4.15 -15.37,-5.79l1.15 -7.53 58.96 9.07 -1.16 7.52c-12.39,-0.18 -22.4,6.41 -30.02,19.79l-87.13 151.82 -8.36 -1.28 -28.36 -127.21 -73.68 111.5 -7.1 -1.09 -36.02 -166.5c-2.22,-10.6 -5.37,-17.94 -8.62,-21.86 -3.17,-4.35 -8.65,-7.75 -16.76,-10.72l1.16 -7.52z"/>
    <path class="fil5" d="M5022.65 8049.74l6.89 0.14 -11.23 79.07 -214.05 35.8 -1.26 -7.52 10.44 -1.75c11.68,-1.95 19.39,-7.1 23.15,-15.45 2.15,-5.07 1.73,-15.3 -0.85,-30.74l-29.93 -178.99c-2.85,-17.11 -6.34,-27.69 -11.28,-31.58 -5.98,-5 -14.41,-6.6 -24.83,-4.86l-10.44 1.75 -1.26 -7.51 125.18 -20.92 1.26 7.5c-14.6,2.45 -24.82,5.44 -30.18,9.34 -5.42,3.48 -8.97,7.94 -10.35,12.45 -1.4,4.53 -0.9,15.16 1.81,31.44l29.17 174.42c1.88,11.26 4.46,18.98 7.24,22.8 2.16,2.64 5.01,4.31 8.56,5 3.55,0.69 14.54,-0.28 32.06,-3.21l20.45 -3.43c21.27,-3.56 35.61,-7.66 43.88,-12.06 7.78,-4.71 14.81,-11.46 20.57,-20.58 5.76,-9.12 10.78,-22.81 15,-41.11z"/>
    <path class="fil5" d="M3173.65 7916.95l-28.84 249.61c-1.36,11.78 -1.41,19.43 -0.15,23.42 1.24,3.97 3.42,7.2 6.96,9.75 3.12,2.49 9.75,4.1 19.41,5.21l-0.88 7.58 -92.02 -10.65 0.87 -7.56c8.83,1.02 14.8,0.86 17.95,-0.48 3.6,-1.72 6.03,-4.41 8.58,-7.96 2.16,-4.01 3.92,-11.88 5.23,-23.24l19.76 -171.04c2.43,-21.01 3.52,-34.08 3.23,-38.81 -0.68,-5.19 -1.61,-8.27 -3.47,-10.62 -1.9,-1.91 -4.76,-3.1 -8.11,-3.49 -3.36,-0.39 -8.13,0.34 -13.84,1.8l-2.49 -7.95 58.57 -16.64 9.24 1.07z"/>
    <path class="fil5" d="M4621.87 8165.24c-8.12,10.75 -16.09,18.93 -24.43,24.17 -8.33,5.23 -17.33,8.43 -27.41,9.6 -20.59,2.42 -39.64,-3.86 -56.78,-19.3 -17.58,-15.41 -27.76,-36.79 -30.91,-63.68 -3.16,-26.89 2.39,-52.24 17,-76.54 14.14,-24.66 34.7,-38.15 61.18,-41.25 16.8,-1.98 30.89,1.91 43.04,11.12l-4.09 -34.87c-2.52,-21.43 -4.47,-34.41 -6.32,-39.3 -1.38,-4.53 -3.46,-7.7 -5.8,-9.55 -2.3,-1.42 -5.34,-1.93 -8.71,-1.54 -3.35,0.4 -7.82,2.2 -13.88,5.05l-3.41 -7.27 53.59 -29.72 9.25 -1.07 25.49 217.22c2.58,21.85 4.57,35.24 6.37,39.71 1.43,4.94 3.5,8.11 6.22,9.5 2.36,1.86 4.97,2.4 7.92,2.05 3.77,-0.45 8.66,-2.3 14.73,-5.13l2.99 7.31 -53.17 29.67 -9.67 1.14 -3.2 -27.32zm-1.68 -14.28l-11.29 -96.21c-1.93,-9.15 -5.49,-17.68 -10.58,-24.76 -4.67,-7.11 -10.82,-12.35 -17.98,-15.35 -7.59,-2.93 -14.14,-4.29 -20.87,-3.5 -11.76,1.38 -22.04,8.12 -30.06,19.71 -10.92,15.77 -14.76,37.51 -11.55,64.82 3.2,27.31 11.6,48.04 25.51,61.33 13.86,12.85 28.2,18.84 42.9,17.11 12.61,-1.48 23.63,-9.16 33.92,-23.15z"/>
    <path class="fil5" d="M3233.13 8098.48c-2.17,27.84 2.88,50.29 15.13,67.38 12.7,16.69 28.11,25.95 46.66,27.39 12.24,0.96 23.46,-1.56 33.26,-7.59 9.39,-6.07 17.89,-17.29 25.5,-33.25l6.01 4.72c-4.44,18.75 -14.22,35.39 -28.89,49.52 -15.14,14.53 -33.02,20.77 -54.11,19.12 -22.35,-1.74 -41.06,-12.11 -56.14,-31.1 -14.64,-18.96 -20.82,-43.2 -18.52,-72.72 2.53,-32.48 12.9,-56.71 30.76,-73.57 17.86,-16.85 39.22,-24.1 64.1,-22.17 21.09,1.65 38.29,9.78 50.69,24.75 12.41,14.96 17.69,34.47 15.88,57.67l-130.33 -10.15zm0.93 -11.8l87.3 6.79c0.11,-12.3 -0.51,-20.83 -2.22,-26.06 -2.78,-7.85 -7.38,-14.15 -14.23,-18.93 -6.38,-5.16 -12.96,-7.79 -20.55,-8.38 -11.4,-0.89 -21.85,2.54 -31.81,10.67 -9.55,8.17 -15.59,20.43 -18.49,35.91z"/>
    <path class="fil5" d="M3514.87 8216.3c-9.87,9.16 -19.15,15.82 -28.28,19.52 -9.12,3.7 -18.54,5.25 -28.67,4.65 -20.7,-1.22 -38.36,-10.73 -52.54,-28.95 -14.61,-18.24 -20.88,-41.07 -19.28,-68.09 1.59,-27.04 11.5,-51.04 30.13,-72.41 18.24,-21.8 40.85,-31.48 67.45,-29.9 16.9,0.99 30.09,7.29 40.45,18.49l2.08 -35.05c1.27,-21.55 1.61,-34.66 0.65,-39.79 -0.57,-4.71 -2.06,-8.19 -4.04,-10.42 -2.01,-1.81 -4.93,-2.84 -8.3,-3.03 -3.38,-0.21 -8.1,0.79 -14.56,2.53l-2.1 -7.76 57.97 -19.87 9.3 0.55 -12.9 218.34c-1.3,21.96 -1.69,35.49 -0.69,40.22 0.54,5.11 2.04,8.59 4.46,10.43 2.01,2.23 4.48,3.23 7.44,3.4 3.8,0.23 8.94,-0.74 15.41,-2.48l1.65 7.73 -57.54 19.9 -9.72 -0.56 1.63 -27.45zm0.86 -14.37l5.71 -96.71c-0.3,-9.35 -2.31,-18.37 -6.08,-26.22 -3.36,-7.82 -8.5,-14.05 -15.03,-18.25 -6.96,-4.23 -13.17,-6.71 -19.93,-7.11 -11.82,-0.7 -23.13,4.13 -33.05,14.14 -13.51,13.61 -21.1,34.35 -22.71,61.81 -1.63,27.45 3.01,49.34 14.38,64.85 11.4,15.08 24.47,23.48 39.24,24.36 12.69,0.74 24.89,-4.89 37.47,-16.87z"/>
    <path class="fil5" d="M3643.97 8170.12c-11.28,-6.17 -20,-13.98 -26.12,-24.27 -6.11,-10.3 -8.81,-21.35 -8.54,-33.61 0.42,-18.61 7.96,-34.53 22.23,-47.74 14.25,-13.23 32.6,-19.58 54.59,-19.09 17.76,0.4 33.3,4.98 46.21,14.16l40.19 0.9c5.92,0.13 9.3,0.22 10.13,0.66 1.27,0.44 1.68,0.88 2.08,1.73 0.82,1.29 1.2,3.42 1.12,6.8 -0.07,3.39 -0.55,5.92 -1.02,7.6 -0.43,0.41 -1.28,0.81 -2.13,1.22 -1.29,0.39 -4.68,0.74 -10.6,0.61l-24.53 -0.56c7.39,9.9 10.92,22.68 10.56,38.32 -0.38,17.34 -7.5,32.41 -21.32,44.79 -13.38,11.97 -31.71,17.91 -54.53,17.39 -9.32,-0.21 -18.59,-1.69 -28.26,-4.86 -6.46,5.35 -10.37,9.49 -12.57,13.67 -2.2,3.76 -3.55,7.12 -3.6,9.65 -0.06,2.54 1.16,4.69 3.22,7.28 2.48,2.16 6.67,3.95 13.42,4.95 3.8,0.51 13.51,1.57 28.73,2.34 28.31,1.05 46.9,2.74 54.91,4.2 13.07,1.99 23.1,6.86 30.55,15.07 7.44,7.78 11.03,17.18 10.77,28.59 -0.35,15.66 -7.87,30.29 -22.98,43.5 -21.59,19.4 -50.16,28.91 -84.4,28.14 -26.66,-0.6 -48.93,-7.03 -66.85,-19.28 -10.41,-7.43 -15.33,-14.73 -15.17,-21.92 0.07,-3.38 1.01,-6.74 2.34,-10.1 2.66,-5.02 7.47,-12.11 15.29,-20.82 0.87,-1.25 7.8,-8.71 21.22,-21.94 -7.09,-4.4 -11.66,-8.3 -14.53,-11.76 -2.9,-3.45 -4.5,-7.29 -4.4,-11.94 0.11,-4.66 2.34,-10.11 6.3,-16.79 3.95,-6.26 13.05,-15.36 27.69,-26.89zm38.55 -114.63c-10.16,-0.23 -18.7,3.38 -26.08,11.68 -6.94,7.88 -10.6,20.07 -10.99,37 -0.47,21.56 3.79,38.57 12.83,50.63 6.99,9.04 15.76,13.89 26.76,14.13 10.57,0.25 19.11,-3.37 26.07,-11.25 6.92,-7.46 10.58,-19.66 10.97,-36.56 0.48,-21.58 -3.78,-39.01 -12.81,-51.5 -6.99,-9.03 -15.76,-13.89 -26.75,-14.13zm-42.22 183.96c-6.52,7.04 -11.73,13.27 -14.82,19.13 -3.53,6.26 -5.35,11.72 -5.46,16.8 -0.14,6.35 3.96,12.36 11.46,17.61 13.76,8.76 33.54,13.44 59.33,14.02 24.95,0.57 43.24,-3.25 54.85,-11.89 12.05,-8.61 18.18,-17.78 18.4,-27.5 0.16,-7.19 -3.11,-12.35 -10.23,-15.47 -7.13,-3.12 -21.04,-5.55 -42.18,-6.44 -30.84,-1.54 -54.48,-3.77 -71.35,-6.26z"/>
    <path class="fil5" d="M4201.65 8202.68c-18.43,16.07 -30.09,25.73 -34.57,28.58 -7.38,3.87 -15.28,6.1 -23.31,6.63 -13.08,0.86 -24.37,-3.05 -33.38,-11.36 -9.03,-8.31 -14.04,-19.84 -15,-34.19 -0.61,-9.3 0.98,-17.45 4.75,-24.48 4.88,-9.66 14,-19.16 27.37,-28.53 13.39,-8.94 35.94,-20.61 67.66,-34.57l-0.5 -7.6c-1.23,-18.57 -5.05,-31.46 -11.4,-37.83 -6.39,-6.79 -15.48,-9.57 -26.87,-8.82 -8.45,0.56 -15.06,3.12 -19.79,8.51 -5.18,5.01 -7.38,10.25 -6.96,16.57l1.2 11.79c0.43,6.35 -0.93,11.51 -3.66,15.09 -3.16,3.6 -7.27,5.56 -12.76,5.92 -5.06,0.34 -9.39,-1.06 -12.6,-4.67 -3.6,-3.15 -5.63,-8.1 -6.04,-14.44 -0.78,-11.81 4.43,-22.77 16,-33.7 11.6,-10.53 28.16,-16.71 50.11,-18.15 16.87,-1.12 30.58,0.93 41.92,5.7 8.3,3.7 14.65,10.05 19.03,18.66 2.93,5.75 5,17.91 6.21,36.06l4.24 64.16c1.17,17.73 2.33,28.68 3.45,32.84 0.67,3.78 2.13,6.65 3.9,7.8 1.36,1.18 3.52,1.88 5.64,1.75 2.11,-0.14 3.76,-0.68 5.4,-1.63 2.81,-2.31 7.96,-7.73 15.87,-16.31l0.76 11.39c-14.25,21.72 -28.33,33.25 -42.25,34.17 -6.76,0.45 -12.39,-1.3 -16.52,-6.12 -4.54,-4.36 -7.17,-12.24 -7.9,-23.22zm-0.9 -13.51l-4.75 -71.76c-20.14,9.4 -33.26,16.2 -39.37,19.99 -10.56,7.06 -17.74,13.9 -21.96,20.53 -4.2,7.07 -6.25,14.41 -5.75,22 0.67,10.14 4.15,17.97 10.51,24.32 6.33,5.95 13.73,8.85 21.33,8.36 10.55,-0.7 23.61,-8.35 39.99,-23.44z"/>
    <path class="fil5" d="M4326.73 8064.97c19.71,-28.4 39.7,-43.23 59.92,-44.91 10.12,-0.85 19.19,0.95 26.79,5.4 8.01,4.43 14.63,12.79 19.84,24.25 4.04,7.72 6.36,20.27 7.8,37.54l6.72 80.52c0.98,11.81 2.49,19.75 4.95,23.79 1.54,3.27 4.32,6 7.84,7.41 3.54,1.83 9.94,2.14 18.79,1.41l0.63 7.58 -93.16 7.77 -0.63 -7.59 3.8 -0.31c8.85,-0.74 15.06,-2.53 18.19,-5.77 3.16,-2.81 5.37,-6.81 6.21,-11.98 0.25,-2.14 0.1,-8.93 -0.78,-19.46l-6.47 -77.57c-1.44,-17.28 -4.6,-29.74 -9.86,-36.95 -4.9,-7.65 -12.8,-10.82 -23.32,-9.94 -16.02,1.33 -31.73,11.56 -46.24,31.03l8.33 99.9c1.06,12.64 2.57,20.58 4.08,23.43 2.43,3.62 5.2,6.36 8.71,7.77 3.55,1.83 10.79,2.07 20.9,1.23l0.64 7.58 -93.59 7.81 -0.64 -7.59 4.22 -0.35c9.7,-0.81 15.81,-3.87 18.8,-8.79 2.95,-5.34 3.86,-14.75 2.74,-28.25l-5.83 -69.98c-1.9,-22.75 -3.46,-36.21 -5.14,-41.16 -1.27,-4.98 -3.23,-8.22 -5.47,-9.73 -2.26,-1.51 -5.28,-2.11 -8.66,-1.82 -3.79,0.31 -8.35,1.54 -13.66,4.11l-3.58 -7.34 54.98 -27.94 8.85 -0.74 3.3 39.64z"/>
    <path class="fil5" d="M3833.3 8123.66c0.38,27.91 7.45,49.82 21.21,65.72 14.17,15.45 30.34,23.28 48.96,23.02 12.27,-0.16 23.22,-3.7 32.43,-10.59 8.79,-6.89 16.24,-18.84 22.36,-35.42l6.42 4.15c-2.72,19.07 -10.94,36.53 -24.27,51.94 -13.75,15.85 -30.99,23.69 -52.14,23.98 -22.42,0.29 -41.99,-8.33 -58.73,-25.87 -16.32,-17.54 -24.67,-41.12 -25.07,-70.74 -0.44,-32.57 7.68,-57.64 23.93,-76.05 16.26,-18.41 36.86,-27.58 61.82,-27.92 21.15,-0.28 39.01,6.26 52.73,20.02 13.73,13.78 20.75,32.73 21.07,56l-130.72 1.76zm-0.15 -11.84l87.56 -1.19c-1.01,-12.25 -2.4,-20.7 -4.58,-25.75 -3.48,-7.56 -8.64,-13.41 -15.9,-17.56 -6.83,-4.55 -13.62,-6.57 -21.23,-6.47 -11.43,0.15 -21.52,4.52 -30.7,13.53 -8.77,9 -13.67,21.76 -15.15,37.44z"/>
   </g>
   <path class="fil1" d="M2791.34 8660.14c33.8,0 61.2,27.4 61.2,61.2 0,33.8 -27.4,61.2 -61.2,61.2 -33.8,0 -61.2,-27.4 -61.2,-61.2 0,-33.8 27.4,-61.2 61.2,-61.2z"/>
   <path class="fil1" d="M4946.92 8660.14c33.8,0 61.2,27.4 61.2,61.2 0,33.8 -27.4,61.2 -61.2,61.2 -33.81,0 -61.2,-27.4 -61.2,-61.2 0,-33.8 27.39,-61.2 61.2,-61.2z"/>
   <path class="fil0" d="M3611.58 5874.18l-66.19 -23.26 60.08 45.18 9.8 30.57 -64.87 -36.04 65.89 64.18 0.87 23.39 -67.9 -56.51 69.15 86.25 -97.71 -76.07 88.03 126.5 -36.71 -16.95 34.2 52.92 -26.03 -6.12 30.44 33.89 -75.27 -37.9 15.56 76.6 -36.4 -90.35 -8.66 92.59 -21.67 -65.44 -17.67 41.52 5.91 -77.31 -31.31 75.25 -2.39 -71.06 -28.65 31.08 19.08 -71.38 -33.76 65.88 10.65 -61.49 -21.53 7.28c1.45,-42.08 22.67,-81.36 62.47,-118.06l-94.16 61.21c21.18,-47.04 55.17,-92.39 103.02,-135.87l-85 66.63 57.89 -53.63 -58.68 28.13 36.7 -51.08 -31.17 -76.09 -0.25 37.42 -37.32 -34.59 20.6 90.09 -38.86 -34.8 12.75 75.95 -53.74 -61.97 16.19 50.72 -17.39 -10.98 16.24 48.59 -27.75 -12.11 32.12 53.57 -54.67 -11.25 18.33 30.16c-42.29,-5.91 -81.78,-19.18 -104.43,-78.66 -43.32,-89.1 112.65,-239.61 269,-286.31l-8.55 -76.02 -27.41 70.44 -16.71 -44.39 -14.63 64.01 -11.42 -48.2 -29.85 60.91 15.44 -80.22 -63.41 105.52 1.37 -52.93 -44.85 93.29c-14.19,-14.44 -25.88,-29.94 -17.23,-54.63l-43.25 60.06 15.02 -42.55 -61.09 37.87 73.64 -68.84 -51.82 15.04 37.07 -61.73 -41.98 2.04 30.35 -38.84 -23.13 -24.06c39.29,-32.44 86.23,-45.77 143.33,-33.56 -17.22,-21.62 -49.84,-37.38 -89.04,-50.6 66.41,-7.9 122.89,-0.33 173.27,16.67l-90.36 -36.16c56.45,-13.1 132.6,-20.61 164.15,-5.2l33.37 -22.44 -113.5 4.84 35.57 -36.09c-14.35,-13.81 -37.03,-11.26 -66.61,4.7 1.91,-18.76 10.4,-35.78 28.61,-50.18l-69.2 40.73 15.32 -52.38 -26.55 0.9c13.98,-21.49 31.81,-35.37 54.67,-39.11l-42.06 -33.12c26.54,-12.13 54.27,-17.21 84.38,-7.99l-4.56 -30 96.82 56.57 -12.75 -41.32 100.6 97.38 -12.04 -58.31 97.25 103.16c-11.82,-33.95 -17.43,-70.29 -12.07,-110.86l25.95 44.92c-3.94,-31.35 0.48,-62.12 15.04,-92.16l27.81 67.65 -3.26 -107.64 39.67 55.36 45.43 -74.18 2.56 44.33c17.41,-35.45 39.21,-47.35 62.91,-46.5l-18.66 67.49c32.24,-41.52 65.63,-60.58 99.79,-64.31l-67.19 73.3c29.77,-17.96 57.92,-27.32 83.3,-22.04 -37.37,14.34 -62.41,27.09 -69.47,37.51 30.85,-6.78 51.22,-0.18 62.12,18.41 -37.94,-2.47 -71.58,1.25 -100.19,12.22 31.44,-6.12 58.69,-4.41 80.87,6.74 -36.62,3.32 -70.9,9.65 -101,21.22 30.43,-7.66 55.02,3.88 76.13,20.07l-75.88 3.47c32.34,4.08 56.66,15.57 73.04,34.27l-107.5 -13.77c49.48,8.65 83.16,29.31 99.51,63.15l-116.02 -45.41 102 69.96c22.86,-3.41 45.06,-0.75 66.13,11.84l-53.51 29.42 135.52 -28.69 -32.08 26.04 155.46 52.82 -64.74 4.93 102.29 40.61 -73.68 1.02 120.66 80.14 -102.67 -45.54 21.7 49.76 -82.42 -75.52 2.37 41.34 -110.86 -87.15 33.2 72.59 -68.34 -70.71 7.36 50.28 -39.11 -49.24 -15.62 39.83 -33.78 -33.36 -26.45 35.97c243.57,-16.88 331.57,172.77 366.2,315.66l-4.82 10.91 20.84 40.17c-5.43,-52.32 -5.88,-104.37 17.87,-155.3l9.41 23.95c-7.8,-33.31 4.34,-65.58 30.25,-97.2l6.03 24.9 39.54 -45.97 -29.89 85.85 61.27 -92.3 -5.85 58.73c35.8,-47.75 76.79,-64.74 119.45,-71.94l-34.86 43.39c40.81,-32.74 79.05,-39.23 115.21,-25.35l-13.57 28.47c46.21,-3.86 74.73,12.78 92.62,41.69l-78.47 1.13c26.15,6.09 43.25,20.66 50.61,44.37l-50.05 -8.34 26.79 21.49 -62.09 -27.36 25.09 26.98 -92.04 -9.44 59.46 20.93 -49.51 7.92 5.57 16.13 -85.17 -16.65 74.73 35.33 -74.96 8.13 27.67 16.67 -10.88 5.7 3.12 25.04c24.47,-10.96 49.78,-14.75 75.75,-12.31l-20.18 25.19 70.46 -21.8 -23.11 23.38c40.79,-13.12 75.95,-8.74 106.26,10.72l-57.58 15.62c55.37,0.31 94.92,17.49 126.44,43.25l-52.38 -6.31c29.25,29.01 38.21,58.48 36.69,88.15l-39.59 -37.07c11.15,19.76 12.49,47.6 7.41,80.67l-30.06 -70.85 6.26 41.48 -32.14 -45.94 11.4 37.7 -48.53 -55.17 12.17 49.55 -85.82 -48.49 37.64 81.07 -48.12 -27.81c130.83,110.34 148.78,236.59 122.92,368.99l-10.79 -66.8 -30.87 35.09 5.78 -110.57 -31.79 26.76 17.12 -116.59 -38 70.55 -2.71 -80.18 -28.21 57.88 12.92 80.5 -45.41 -45.93 52.75 108.68 -42.56 -30.37 -17.89 95.54 -22.43 -44.64 -4.09 75.16 -21.29 -45.85 -27.31 68.53 -0.19 -73.1 -56.48 7.17 63.41 -89.37 -56.69 0.77 53.13 -52.96 -92.87 23.94 74.9 -47.68 -92 -12.02 43.75 -34.81 -64.28 -25.52 41.88 -45.38 -65.97 28.98c-126.4,288.8 -177.01,605.86 -170.67,944.39l166.91 72.67 -549.42 -1.94 87.06 -34.18 40.9 -6.57 26.98 -13.84 61.52 4.66 -9.22 -28.39 -3.24 2.62c-116.9,-422.77 -202.38,-849.23 -199.47,-1286.02zm533.26 37.22l-15.34 -49.22 -0.66 13.14 -14.11 -20.88 30.11 56.96zm-54.2 -67.16l-0.7 -1.75 -9.41 -69.06 -13.31 49.07 -4.78 -85.1 -9.26 73.22 -2.48 -96.25 -9.32 83.94 -6.72 -112.34 -9.07 107.1 -5.34 -97.65 -4.89 94.73 -8.39 -2.39 -10.36 -121.41 -5.45 107.39 -8.96 -10.59 -14.32 -40.88 -13.21 42.96 50.33 47.14 -40.55 3.5 25.67 35.82 29.52 -14.19 -0.56 -35.15 67.88 60.32 3.68 -18.43zm-70.91 48.79l0.97 1.35 -2.37 -1.27 -37.49 1.85 14.19 36.91 27.53 -38.97 -2.83 0.13zm-21.08 48.28l15.5 40.36 -43 -22.11 -26.09 44.52 105.56 10.83 39.69 -50.05 -77.41 26.61 38.86 -71.71 -53.11 21.55zm-66.46 61.45l-9.64 -63.03 -26.83 25.5 -26.17 -86.25 -47 15.38 -5.72 -65.87 -27.54 42.71 -16.33 -73.99 -11.42 55.85 -45.79 -30.64 23.67 44 -49.43 -18.22 13.53 53.36 -28.8 -13.21c26.78,885.01 135.72,836.69 216.96,1204.59 39.03,-293.66 108.8,-577.14 216.27,-848.44l-13.37 -84.19 -19.04 84.02 -30.37 -31.81 -2.54 53.01 -37.95 -33.68 -20.61 82.65 -25.26 -35.41 -5.24 87.17 -23.59 -62.83 -26.69 49.41 9.67 -61.37 -46.1 11.2 31.91 -79.91 -38.94 9.71 40.28 -50.92 -31.19 -21.91 64.93 -46.7 -42.32 -2.5 184.37 -54.98 -315.97 117.64 23.1 -39.48 -65.33 37.23 64.89 -69.25 -21.24 -25.52 50.13 -17.38 -43 -22.44 116.32 14.21 -87.9 -29.29 129.94 1.83 -72.67 -28.25 78.02 8z"/>
  </g>
 </g>
</svg>
